<svg width="494" height="408" viewBox="0 0 494 408" fill="none" xmlns="http://www.w3.org/2000/svg">
<path d="M189 15C189 6.71573 195.716 0 204 0H425C433.284 0 440 6.71573 440 15V85C440 93.2843 433.284 100 425 100H189V15Z" fill="#D2EAFF"/>
<path d="M230.031 34H228.098V21.1777H221.408V34H219.475V19.459H230.031V34ZM241.994 28.2578C241.994 30.0742 241.558 31.5228 240.686 32.6035C239.82 33.6777 238.723 34.2148 237.395 34.2148C236.854 34.2148 236.376 34.153 235.959 34.0293C235.542 33.9056 235.116 33.7135 234.68 33.4531V38.0234H232.844V23.0918H234.68V24.2344C235.135 23.8242 235.64 23.4824 236.193 23.209C236.753 22.929 237.362 22.7891 238.02 22.7891C239.27 22.7891 240.243 23.2839 240.939 24.2734C241.643 25.263 241.994 26.5911 241.994 28.2578ZM240.1 28.4629C240.1 27.2194 239.901 26.2559 239.504 25.5723C239.107 24.8822 238.462 24.5371 237.57 24.5371C237.049 24.5371 236.545 24.6543 236.057 24.8887C235.575 25.1165 235.116 25.4128 234.68 25.7773V31.959C235.161 32.1934 235.572 32.3529 235.91 32.4375C236.255 32.5221 236.649 32.5645 237.092 32.5645C238.042 32.5645 238.781 32.2161 239.309 31.5195C239.836 30.8229 240.1 29.804 240.1 28.4629ZM252.512 34H250.695V25.8652L245.559 34H243.898V23.0918H245.715V31.0996L250.793 23.0918H252.512V34ZM263.723 30.6992C263.723 31.2266 263.622 31.6953 263.42 32.1055C263.218 32.5091 262.941 32.8477 262.59 33.1211C262.147 33.4661 261.682 33.7005 261.193 33.8242C260.712 33.9414 260.132 34 259.455 34H255.168V23.0918H259.172C259.973 23.0918 260.559 23.1178 260.93 23.1699C261.301 23.2155 261.669 23.3392 262.033 23.541C262.417 23.7493 262.701 24.026 262.883 24.3711C263.065 24.7161 263.156 25.1263 263.156 25.6016C263.156 26.1224 263.013 26.5911 262.727 27.0078C262.44 27.418 262.059 27.737 261.584 27.9648L261.633 28.0332C262.225 28.1829 262.72 28.4857 263.117 28.9414C263.521 29.3971 263.723 29.9831 263.723 30.6992ZM261.271 25.8848C261.271 25.6374 261.229 25.4225 261.145 25.2402C261.066 25.0579 260.926 24.9147 260.725 24.8105C260.49 24.6868 260.227 24.6152 259.934 24.5957C259.647 24.5697 259.247 24.5566 258.732 24.5566H256.984V27.5449H259.094C259.543 27.5449 259.862 27.5254 260.051 27.4863C260.24 27.4408 260.448 27.3496 260.676 27.2129C260.891 27.0827 261.044 26.9069 261.135 26.6855C261.226 26.4642 261.271 26.1973 261.271 25.8848ZM261.828 30.709C261.828 30.3379 261.773 30.0417 261.662 29.8203C261.558 29.5924 261.324 29.3906 260.959 29.2148C260.731 29.1042 260.487 29.0358 260.227 29.0098C259.966 28.9837 259.605 28.9707 259.143 28.9707H256.984V32.5352H258.576C259.234 32.5352 259.745 32.5091 260.109 32.457C260.474 32.4049 260.786 32.3008 261.047 32.1445C261.32 31.9753 261.519 31.7799 261.643 31.5586C261.766 31.3372 261.828 31.054 261.828 30.709ZM270.393 34.2539C268.654 34.2539 267.303 33.7656 266.34 32.7891C265.383 31.806 264.904 30.4128 264.904 28.6094C264.904 26.832 265.37 25.4193 266.301 24.3711C267.232 23.3164 268.449 22.7891 269.953 22.7891C270.63 22.7891 271.229 22.8867 271.75 23.082C272.271 23.2773 272.727 23.5833 273.117 24C273.508 24.4167 273.807 24.9277 274.016 25.5332C274.224 26.1322 274.328 26.8678 274.328 27.7402V28.7363H266.77C266.77 30.0059 267.089 30.9759 267.727 31.6465C268.365 32.3171 269.247 32.6523 270.373 32.6523C270.777 32.6523 271.171 32.6068 271.555 32.5156C271.945 32.4245 272.297 32.3073 272.609 32.1641C272.941 32.0143 273.221 31.8711 273.449 31.7344C273.677 31.5911 273.866 31.4577 274.016 31.334H274.123V33.3359C273.908 33.4206 273.641 33.528 273.322 33.6582C273.003 33.7819 272.717 33.8796 272.463 33.9512C272.105 34.0488 271.779 34.1237 271.486 34.1758C271.2 34.2279 270.835 34.2539 270.393 34.2539ZM272.541 27.3301C272.528 26.8353 272.469 26.4089 272.365 26.0508C272.261 25.6927 272.111 25.39 271.916 25.1426C271.701 24.8691 271.424 24.6608 271.086 24.5176C270.754 24.3743 270.34 24.3027 269.846 24.3027C269.357 24.3027 268.941 24.3776 268.596 24.5273C268.257 24.6706 267.948 24.8822 267.668 25.1621C267.395 25.4486 267.186 25.7676 267.043 26.1191C266.9 26.4642 266.809 26.8678 266.77 27.3301H272.541ZM284.152 24.7031H280.441V34H278.605V24.7031H274.895V23.0918H284.152V24.7031ZM289.074 31.2168L286.34 37.6133H284.914L286.633 31.2168H289.074ZM307.941 34H306.125V25.4258L303.508 30.9922H302.141L299.543 25.4258V34H297.824V23.0918H300.041L302.912 29.1465L305.686 23.0918H307.941V34ZM315.334 34.2539C313.596 34.2539 312.245 33.7656 311.281 32.7891C310.324 31.806 309.846 30.4128 309.846 28.6094C309.846 26.832 310.311 25.4193 311.242 24.3711C312.173 23.3164 313.391 22.7891 314.895 22.7891C315.572 22.7891 316.171 22.8867 316.691 23.082C317.212 23.2773 317.668 23.5833 318.059 24C318.449 24.4167 318.749 24.9277 318.957 25.5332C319.165 26.1322 319.27 26.8678 319.27 27.7402V28.7363H311.711C311.711 30.0059 312.03 30.9759 312.668 31.6465C313.306 32.3171 314.188 32.6523 315.314 32.6523C315.718 32.6523 316.112 32.6068 316.496 32.5156C316.887 32.4245 317.238 32.3073 317.551 32.1641C317.883 32.0143 318.163 31.8711 318.391 31.7344C318.618 31.5911 318.807 31.4577 318.957 31.334H319.064V33.3359C318.85 33.4206 318.583 33.528 318.264 33.6582C317.945 33.7819 317.658 33.8796 317.404 33.9512C317.046 34.0488 316.721 34.1237 316.428 34.1758C316.141 34.2279 315.777 34.2539 315.334 34.2539ZM317.482 27.3301C317.469 26.8353 317.411 26.4089 317.307 26.0508C317.202 25.6927 317.053 25.39 316.857 25.1426C316.643 24.8691 316.366 24.6608 316.027 24.5176C315.695 24.3743 315.282 24.3027 314.787 24.3027C314.299 24.3027 313.882 24.3776 313.537 24.5273C313.199 24.6706 312.889 24.8822 312.609 25.1621C312.336 25.4486 312.128 25.7676 311.984 26.1191C311.841 26.4642 311.75 26.8678 311.711 27.3301H317.482ZM329.738 34H327.902V29.0879H322.961V34H321.125V23.0918H322.961V27.5059H327.902V23.0918H329.738V34ZM340.363 24.7031H336.652V34H334.816V24.7031H331.105V23.0918H340.363V24.7031ZM350.344 34H348.527V25.8652L343.391 34H341.73V23.0918H343.547V31.0996L348.625 23.0918H350.344V34ZM356.086 19.459L355.812 29.9961H354.191L353.898 19.459H356.086ZM355.988 34H353.996V31.9395H355.988V34ZM229.348 50.6758C229.348 52.987 228.736 54.8294 227.512 56.2031C226.294 57.5768 224.699 58.2637 222.727 58.2637C221.893 58.2637 221.105 58.179 220.363 58.0098C219.628 57.847 218.98 57.6354 218.42 57.375V55.2363H218.566C219.035 55.6595 219.631 55.998 220.354 56.252C221.076 56.4993 221.848 56.623 222.668 56.623C224.068 56.623 225.207 56.112 226.086 55.0898C226.965 54.0677 227.404 52.7201 227.404 51.0469H220.314V49.3574H227.307C227.157 47.9512 226.669 46.8477 225.842 46.0469C225.021 45.2396 223.964 44.8359 222.668 44.8359C221.867 44.8359 221.118 44.9596 220.422 45.207C219.725 45.4544 219.12 45.7995 218.605 46.2422H218.459V44.0938C218.98 43.8529 219.618 43.6445 220.373 43.4688C221.135 43.2865 221.926 43.1953 222.746 43.1953C224.842 43.1953 226.467 43.8464 227.619 45.1484C228.771 46.444 229.348 48.2865 229.348 50.6758ZM239.289 48.7031H235.578V58H233.742V48.7031H230.031V47.0918H239.289V48.7031ZM249.631 52.5508C249.631 54.3867 249.188 55.806 248.303 56.8086C247.417 57.8047 246.239 58.3027 244.768 58.3027C243.251 58.3027 242.056 57.7884 241.184 56.7598C240.318 55.7246 239.885 54.3216 239.885 52.5508C239.885 50.7279 240.331 49.3118 241.223 48.3027C242.121 47.2936 243.303 46.7891 244.768 46.7891C246.239 46.7891 247.417 47.2936 248.303 48.3027C249.188 49.3053 249.631 50.7214 249.631 52.5508ZM247.736 52.5508C247.736 51.138 247.479 50.0898 246.965 49.4062C246.451 48.7161 245.718 48.3711 244.768 48.3711C243.811 48.3711 243.072 48.7161 242.551 49.4062C242.036 50.0898 241.779 51.138 241.779 52.5508C241.779 53.918 242.036 54.9564 242.551 55.666C243.072 56.3691 243.811 56.7207 244.768 56.7207C245.712 56.7207 246.441 56.3757 246.955 55.6855C247.476 54.9889 247.736 53.944 247.736 52.5508ZM265.734 48.7031H262.023V58H260.188V48.7031H256.477V47.0918H265.734V48.7031ZM275.656 54.6992C275.656 55.2266 275.555 55.6953 275.354 56.1055C275.152 56.5091 274.875 56.8477 274.523 57.1211C274.081 57.4661 273.615 57.7005 273.127 57.8242C272.645 57.9414 272.066 58 271.389 58H267.102V47.0918H271.105C271.906 47.0918 272.492 47.1178 272.863 47.1699C273.234 47.2155 273.602 47.3392 273.967 47.541C274.351 47.7493 274.634 48.026 274.816 48.3711C274.999 48.7161 275.09 49.1263 275.09 49.6016C275.09 50.1224 274.947 50.5911 274.66 51.0078C274.374 51.418 273.993 51.737 273.518 51.9648L273.566 52.0332C274.159 52.1829 274.654 52.4857 275.051 52.9414C275.454 53.3971 275.656 53.9831 275.656 54.6992ZM273.205 49.8848C273.205 49.6374 273.163 49.4225 273.078 49.2402C273 49.0579 272.86 48.9147 272.658 48.8105C272.424 48.6868 272.16 48.6152 271.867 48.5957C271.581 48.5697 271.18 48.5566 270.666 48.5566H268.918V51.5449H271.027C271.477 51.5449 271.796 51.5254 271.984 51.4863C272.173 51.4408 272.382 51.3496 272.609 51.2129C272.824 51.0827 272.977 50.9069 273.068 50.6855C273.16 50.4642 273.205 50.1973 273.205 49.8848ZM273.762 54.709C273.762 54.3379 273.706 54.0417 273.596 53.8203C273.492 53.5924 273.257 53.3906 272.893 53.2148C272.665 53.1042 272.421 53.0358 272.16 53.0098C271.9 52.9837 271.538 52.9707 271.076 52.9707H268.918V56.5352H270.51C271.167 56.5352 271.678 56.5091 272.043 56.457C272.408 56.4049 272.72 56.3008 272.98 56.1445C273.254 55.9753 273.452 55.7799 273.576 55.5586C273.7 55.3372 273.762 55.054 273.762 54.709ZM286.564 52.5508C286.564 54.3867 286.122 55.806 285.236 56.8086C284.351 57.8047 283.173 58.3027 281.701 58.3027C280.184 58.3027 278.99 57.7884 278.117 56.7598C277.251 55.7246 276.818 54.3216 276.818 52.5508C276.818 50.7279 277.264 49.3118 278.156 48.3027C279.055 47.2936 280.236 46.7891 281.701 46.7891C283.173 46.7891 284.351 47.2936 285.236 48.3027C286.122 49.3053 286.564 50.7214 286.564 52.5508ZM284.67 52.5508C284.67 51.138 284.413 50.0898 283.898 49.4062C283.384 48.7161 282.652 48.3711 281.701 48.3711C280.744 48.3711 280.005 48.7161 279.484 49.4062C278.97 50.0898 278.713 51.138 278.713 52.5508C278.713 53.918 278.97 54.9564 279.484 55.666C280.005 56.3691 280.744 56.7207 281.701 56.7207C282.645 56.7207 283.374 56.3757 283.889 55.6855C284.41 54.9889 284.67 53.944 284.67 52.5508ZM297.062 58H295.246V49.8652L290.109 58H288.449V47.0918H290.266V55.0996L295.344 47.0918H297.062V58ZM296.242 42.0234C296.242 42.5833 296.174 43.0944 296.037 43.5566C295.9 44.0124 295.705 44.3965 295.451 44.709C295.158 45.054 294.826 45.3145 294.455 45.4902C294.084 45.6595 293.609 45.7441 293.029 45.7441C292.495 45.7441 292.027 45.6562 291.623 45.4805C291.226 45.2982 290.891 45.041 290.617 44.709C290.35 44.3835 290.148 43.9928 290.012 43.5371C289.875 43.0814 289.807 42.5768 289.807 42.0234H291.389C291.389 42.9023 291.525 43.5371 291.799 43.9277C292.072 44.3118 292.482 44.5039 293.029 44.5039C293.544 44.5039 293.944 44.3151 294.23 43.9375C294.517 43.5534 294.66 42.9154 294.66 42.0234H296.242ZM314.582 58H312.746V48.6738H307.805V58H305.969V47.0918H314.582V58ZM326.213 52.5508C326.213 54.3867 325.77 55.806 324.885 56.8086C323.999 57.8047 322.821 58.3027 321.35 58.3027C319.833 58.3027 318.638 57.7884 317.766 56.7598C316.9 55.7246 316.467 54.3216 316.467 52.5508C316.467 50.7279 316.913 49.3118 317.805 48.3027C318.703 47.2936 319.885 46.7891 321.35 46.7891C322.821 46.7891 323.999 47.2936 324.885 48.3027C325.77 49.3053 326.213 50.7214 326.213 52.5508ZM324.318 52.5508C324.318 51.138 324.061 50.0898 323.547 49.4062C323.033 48.7161 322.3 48.3711 321.35 48.3711C320.393 48.3711 319.654 48.7161 319.133 49.4062C318.618 50.0898 318.361 51.138 318.361 52.5508C318.361 53.918 318.618 54.9564 319.133 55.666C319.654 56.3691 320.393 56.7207 321.35 56.7207C322.294 56.7207 323.023 56.3757 323.537 55.6855C324.058 54.9889 324.318 53.944 324.318 52.5508ZM338.215 58H336.398V49.4258L333.781 54.9922H332.414L329.816 49.4258V58H328.098V47.0918H330.314L333.186 53.1465L335.959 47.0918H338.215V58ZM349.846 52.5508C349.846 54.3867 349.403 55.806 348.518 56.8086C347.632 57.8047 346.454 58.3027 344.982 58.3027C343.465 58.3027 342.271 57.7884 341.398 56.7598C340.533 55.7246 340.1 54.3216 340.1 52.5508C340.1 50.7279 340.546 49.3118 341.438 48.3027C342.336 47.2936 343.518 46.7891 344.982 46.7891C346.454 46.7891 347.632 47.2936 348.518 48.3027C349.403 49.3053 349.846 50.7214 349.846 52.5508ZM347.951 52.5508C347.951 51.138 347.694 50.0898 347.18 49.4062C346.665 48.7161 345.933 48.3711 344.982 48.3711C344.025 48.3711 343.286 48.7161 342.766 49.4062C342.251 50.0898 341.994 51.138 341.994 52.5508C341.994 53.918 342.251 54.9564 342.766 55.666C343.286 56.3691 344.025 56.7207 344.982 56.7207C345.926 56.7207 346.656 56.3757 347.17 55.6855C347.691 54.9889 347.951 53.944 347.951 52.5508ZM365.725 60.6172H364.016V58H351.73V47.0918H353.566V56.4473H357.268V47.0918H359.104V56.4473H362.805V47.0918H364.641V56.4473H365.725V60.6172ZM376.145 58H374.309V53.0879H369.367V58H367.531V47.0918H369.367V51.5059H374.309V47.0918H376.145V58ZM387.414 58H385.598V49.8652L380.461 58H378.801V47.0918H380.617V55.0996L385.695 47.0918H387.414V58ZM398.85 58H396.564L392.824 52.9707H391.906V58H390.07V47.0918H391.906V51.8379C392.382 51.8314 392.785 51.7337 393.117 51.5449C393.456 51.3496 393.742 50.9753 393.977 50.4219C394.048 50.2591 394.126 50.0703 394.211 49.8555C394.302 49.6406 394.374 49.4518 394.426 49.2891C394.712 48.4883 395.109 47.9219 395.617 47.5898C396.125 47.2578 396.786 47.0918 397.6 47.0918H398.098V48.6738H397.678C397.163 48.6738 396.776 48.7812 396.516 48.9961C396.262 49.2044 396.047 49.5885 395.871 50.1484C395.689 50.7148 395.474 51.1576 395.227 51.4766C394.979 51.7891 394.706 52.0299 394.406 52.1992L398.85 58ZM403.586 55.2168L400.852 61.6133H399.426L401.145 55.2168H403.586ZM230.227 82H227.766L222.629 75.3398H221.408V82H219.475V67.459H221.408V74.0117C222.17 73.9857 222.772 73.7936 223.215 73.4355C223.664 73.0775 224.029 72.5632 224.309 71.8926C224.426 71.5996 224.53 71.3229 224.621 71.0625C224.719 70.7956 224.797 70.571 224.855 70.3887C225.246 69.2754 225.744 68.5104 226.35 68.0938C226.955 67.6706 227.795 67.459 228.869 67.459H229.465V69.1875H228.977C228.182 69.1875 227.626 69.3438 227.307 69.6562C226.988 69.9622 226.695 70.5449 226.428 71.4043C226.161 72.2637 225.861 72.8952 225.529 73.2988C225.197 73.696 224.797 74.0475 224.328 74.3535L230.227 82ZM240.354 76.5508C240.354 78.3867 239.911 79.806 239.025 80.8086C238.14 81.8047 236.962 82.3027 235.49 82.3027C233.973 82.3027 232.779 81.7884 231.906 80.7598C231.04 79.7246 230.607 78.3216 230.607 76.5508C230.607 74.7279 231.053 73.3118 231.945 72.3027C232.844 71.2936 234.025 70.7891 235.49 70.7891C236.962 70.7891 238.14 71.2936 239.025 72.3027C239.911 73.3053 240.354 74.7214 240.354 76.5508ZM238.459 76.5508C238.459 75.138 238.202 74.0898 237.688 73.4062C237.173 72.7161 236.441 72.3711 235.49 72.3711C234.533 72.3711 233.794 72.7161 233.273 73.4062C232.759 74.0898 232.502 75.138 232.502 76.5508C232.502 77.918 232.759 78.9564 233.273 79.666C233.794 80.3691 234.533 80.7207 235.49 80.7207C236.434 80.7207 237.163 80.3757 237.678 79.6855C238.199 78.9889 238.459 77.944 238.459 76.5508ZM250.207 72.7031H246.496V82H244.66V72.7031H240.949V71.0918H250.207V72.7031ZM260.188 82H258.371V73.8652L253.234 82H251.574V71.0918H253.391V79.0996L258.469 71.0918H260.188V82ZM271.623 82H269.338L265.598 76.9707H264.68V82H262.844V71.0918H264.68V75.8379C265.155 75.8314 265.559 75.7337 265.891 75.5449C266.229 75.3496 266.516 74.9753 266.75 74.4219C266.822 74.2591 266.9 74.0703 266.984 73.8555C267.076 73.6406 267.147 73.4518 267.199 73.2891C267.486 72.4883 267.883 71.9219 268.391 71.5898C268.898 71.2578 269.559 71.0918 270.373 71.0918H270.871V72.6738H270.451C269.937 72.6738 269.549 72.7812 269.289 72.9961C269.035 73.2044 268.82 73.5885 268.645 74.1484C268.462 74.7148 268.247 75.1576 268 75.4766C267.753 75.7891 267.479 76.0299 267.18 76.1992L271.623 82ZM282.434 73.875H280.1V71.0918H282.434V73.875ZM282.434 82H280.1V79.2168H282.434V82ZM289.787 68.8457C289.436 68.8457 289.084 68.888 288.732 68.9727C288.381 69.0573 288.036 69.168 287.697 69.3047C287.385 69.4349 287.111 69.5716 286.877 69.7148C286.649 69.8581 286.444 69.9915 286.262 70.1152H286.145V68.0547C286.568 67.8268 287.141 67.6217 287.863 67.4395C288.592 67.2507 289.286 67.1562 289.943 67.1562C290.601 67.1562 291.174 67.2246 291.662 67.3613C292.157 67.4915 292.603 67.6966 293 67.9766C293.43 68.2891 293.752 68.6667 293.967 69.1094C294.188 69.5521 294.299 70.0697 294.299 70.6621C294.299 71.4629 294.035 72.166 293.508 72.7715C292.98 73.377 292.349 73.7611 291.613 73.9238V74.0605C291.919 74.1191 292.245 74.2201 292.59 74.3633C292.941 74.5065 293.267 74.7181 293.566 74.998C293.866 75.278 294.11 75.6393 294.299 76.082C294.488 76.5182 294.582 77.0521 294.582 77.6836C294.582 78.3411 294.468 78.9466 294.24 79.5C294.019 80.0469 293.703 80.5319 293.293 80.9551C292.87 81.3978 292.359 81.7331 291.76 81.9609C291.161 82.1888 290.48 82.3027 289.719 82.3027C288.99 82.3027 288.267 82.2148 287.551 82.0391C286.835 81.8633 286.232 81.6517 285.744 81.4043V79.3438H285.881C286.291 79.6432 286.841 79.9297 287.531 80.2031C288.221 80.4766 288.911 80.6133 289.602 80.6133C289.999 80.6133 290.396 80.5514 290.793 80.4277C291.197 80.2975 291.532 80.0892 291.799 79.8027C292.059 79.5163 292.258 79.2005 292.395 78.8555C292.531 78.5104 292.6 78.0742 292.6 77.5469C292.6 77.0195 292.521 76.5866 292.365 76.248C292.215 75.9095 292.004 75.6426 291.73 75.4473C291.457 75.252 291.132 75.1185 290.754 75.0469C290.383 74.9688 289.979 74.9297 289.543 74.9297H288.713V73.3086H289.357C290.236 73.3086 290.949 73.1003 291.496 72.6836C292.049 72.2669 292.326 71.6615 292.326 70.8672C292.326 70.5026 292.255 70.1901 292.111 69.9297C291.968 69.6628 291.786 69.4512 291.564 69.2949C291.317 69.1257 291.044 69.0085 290.744 68.9434C290.445 68.8783 290.126 68.8457 289.787 68.8457Z" fill="black"/>
<path d="M189 106H479C487.284 106 494 112.716 494 121V161C494 169.284 487.284 176 479 176H189V106Z" fill="#D2EAFF"/>
<path d="M222.873 137V124.178H217.99V122.459H229.689V124.178H224.807V137H222.873ZM239.582 126.092L233.713 141.023H231.75L233.703 136.473L229.738 126.092H231.721L234.699 134.168L237.668 126.092H239.582ZM248.938 127.703H245.227V137H243.391V127.703H239.68V126.092H248.938V127.703ZM264.523 127.703H260.812V137H258.977V127.703H255.266V126.092H264.523V127.703ZM273.986 133.621C273.986 134.148 273.879 134.627 273.664 135.057C273.456 135.486 273.169 135.835 272.805 136.102C272.375 136.427 271.916 136.658 271.428 136.795C270.939 136.932 270.311 137 269.543 137H265.891V126.092H267.727V130.34H269.592C270.412 130.34 271.047 130.382 271.496 130.467C271.952 130.551 272.404 130.76 272.854 131.092C273.231 131.372 273.514 131.73 273.703 132.166C273.892 132.602 273.986 133.087 273.986 133.621ZM272.092 133.65C272.092 133.318 272.033 133.029 271.916 132.781C271.805 132.527 271.62 132.322 271.359 132.166C271.086 132.003 270.773 131.906 270.422 131.873C270.077 131.84 269.579 131.824 268.928 131.824H267.727V135.535H268.889C269.54 135.535 270.044 135.509 270.402 135.457C270.76 135.398 271.07 135.291 271.33 135.135C271.597 134.965 271.789 134.767 271.906 134.539C272.03 134.305 272.092 134.008 272.092 133.65ZM277.092 137H275.256V126.092H277.092V137ZM290.344 137.244C289.595 137.244 288.908 137.13 288.283 136.902C287.658 136.668 287.121 136.316 286.672 135.848C286.223 135.379 285.874 134.79 285.627 134.08C285.38 133.364 285.256 132.524 285.256 131.561C285.256 130.604 285.383 129.777 285.637 129.08C285.897 128.383 286.242 127.798 286.672 127.322C287.102 126.847 287.635 126.482 288.273 126.229C288.918 125.968 289.608 125.838 290.344 125.838C290.943 125.838 291.519 125.923 292.072 126.092C292.632 126.261 293.13 126.456 293.566 126.678V128.738H293.459C293.329 128.628 293.16 128.501 292.951 128.357C292.749 128.214 292.502 128.068 292.209 127.918C291.955 127.788 291.656 127.674 291.311 127.576C290.965 127.479 290.633 127.43 290.314 127.43C289.364 127.43 288.599 127.791 288.02 128.514C287.447 129.23 287.16 130.245 287.16 131.561C287.16 132.85 287.437 133.855 287.99 134.578C288.55 135.294 289.325 135.652 290.314 135.652C290.913 135.652 291.483 135.529 292.023 135.281C292.564 135.034 293.042 134.715 293.459 134.324H293.566V136.385C293.384 136.469 293.156 136.574 292.883 136.697C292.609 136.814 292.362 136.902 292.141 136.961C291.828 137.052 291.548 137.12 291.301 137.166C291.053 137.218 290.734 137.244 290.344 137.244ZM305.363 137H303.547V128.426L300.93 133.992H299.562L296.965 128.426V137H295.246V126.092H297.463L300.334 132.146L303.107 126.092H305.363V137ZM316.994 131.551C316.994 133.387 316.551 134.806 315.666 135.809C314.781 136.805 313.602 137.303 312.131 137.303C310.614 137.303 309.419 136.788 308.547 135.76C307.681 134.725 307.248 133.322 307.248 131.551C307.248 129.728 307.694 128.312 308.586 127.303C309.484 126.294 310.666 125.789 312.131 125.789C313.602 125.789 314.781 126.294 315.666 127.303C316.551 128.305 316.994 129.721 316.994 131.551ZM315.1 131.551C315.1 130.138 314.842 129.09 314.328 128.406C313.814 127.716 313.081 127.371 312.131 127.371C311.174 127.371 310.435 127.716 309.914 128.406C309.4 129.09 309.143 130.138 309.143 131.551C309.143 132.918 309.4 133.956 309.914 134.666C310.435 135.369 311.174 135.721 312.131 135.721C313.075 135.721 313.804 135.376 314.318 134.686C314.839 133.989 315.1 132.944 315.1 131.551ZM332.121 137H329.904L326.477 131.98H325.764V137H323.947V131.98H323.234L319.748 137H317.629L321.74 131.287C321.421 131.118 321.138 130.874 320.891 130.555C320.643 130.229 320.422 129.76 320.227 129.148C320.051 128.595 319.842 128.211 319.602 127.996C319.361 127.781 318.967 127.674 318.42 127.674H318V126.092H318.498C319.299 126.092 319.956 126.255 320.471 126.58C320.992 126.906 321.398 127.475 321.691 128.289C321.75 128.458 321.822 128.654 321.906 128.875C321.997 129.09 322.076 129.272 322.141 129.422C322.355 129.917 322.606 130.275 322.893 130.496C323.179 130.717 323.531 130.841 323.947 130.867V126.092H325.764V130.867C326.18 130.835 326.535 130.708 326.828 130.486C327.128 130.265 327.382 129.91 327.59 129.422C327.661 129.259 327.74 129.07 327.824 128.855C327.915 128.641 327.987 128.452 328.039 128.289C328.326 127.488 328.723 126.922 329.23 126.59C329.738 126.258 330.399 126.092 331.213 126.092H331.711V127.674H331.291C330.777 127.674 330.389 127.781 330.129 127.996C329.875 128.204 329.66 128.589 329.484 129.148C329.302 129.715 329.087 130.161 328.84 130.486C328.592 130.812 328.319 131.059 328.02 131.229L332.121 137ZM338.225 137.254C336.486 137.254 335.135 136.766 334.172 135.789C333.215 134.806 332.736 133.413 332.736 131.609C332.736 129.832 333.202 128.419 334.133 127.371C335.064 126.316 336.281 125.789 337.785 125.789C338.462 125.789 339.061 125.887 339.582 126.082C340.103 126.277 340.559 126.583 340.949 127C341.34 127.417 341.639 127.928 341.848 128.533C342.056 129.132 342.16 129.868 342.16 130.74V131.736H334.602C334.602 133.006 334.921 133.976 335.559 134.646C336.197 135.317 337.079 135.652 338.205 135.652C338.609 135.652 339.003 135.607 339.387 135.516C339.777 135.424 340.129 135.307 340.441 135.164C340.773 135.014 341.053 134.871 341.281 134.734C341.509 134.591 341.698 134.458 341.848 134.334H341.955V136.336C341.74 136.421 341.473 136.528 341.154 136.658C340.835 136.782 340.549 136.88 340.295 136.951C339.937 137.049 339.611 137.124 339.318 137.176C339.032 137.228 338.667 137.254 338.225 137.254ZM340.373 130.33C340.36 129.835 340.301 129.409 340.197 129.051C340.093 128.693 339.943 128.39 339.748 128.143C339.533 127.869 339.257 127.661 338.918 127.518C338.586 127.374 338.173 127.303 337.678 127.303C337.189 127.303 336.773 127.378 336.428 127.527C336.089 127.671 335.78 127.882 335.5 128.162C335.227 128.449 335.018 128.768 334.875 129.119C334.732 129.464 334.641 129.868 334.602 130.33H340.373ZM356.926 137H344.016V126.092H345.852V135.447H349.553V126.092H351.389V135.447H355.09V126.092H356.926V137ZM367.844 133.621C367.844 134.148 367.736 134.627 367.521 135.057C367.313 135.486 367.027 135.835 366.662 136.102C366.232 136.427 365.773 136.658 365.285 136.795C364.797 136.932 364.169 137 363.4 137H359.582V126.092H361.418V130.34H363.449C364.27 130.34 364.904 130.382 365.354 130.467C365.809 130.551 366.262 130.76 366.711 131.092C367.089 131.372 367.372 131.73 367.561 132.166C367.749 132.602 367.844 133.087 367.844 133.621ZM365.949 133.65C365.949 133.318 365.891 133.029 365.773 132.781C365.663 132.527 365.477 132.322 365.217 132.166C364.943 132.003 364.631 131.906 364.279 131.873C363.934 131.84 363.436 131.824 362.785 131.824H361.418V135.535H362.746C363.397 135.535 363.902 135.509 364.26 135.457C364.618 135.398 364.927 135.291 365.188 135.135C365.454 134.965 365.646 134.767 365.764 134.539C365.887 134.305 365.949 134.008 365.949 133.65ZM384.465 137H382.629V127.674H377.688V137H375.852V126.092H384.465V137ZM396.096 131.551C396.096 133.387 395.653 134.806 394.768 135.809C393.882 136.805 392.704 137.303 391.232 137.303C389.715 137.303 388.521 136.788 387.648 135.76C386.783 134.725 386.35 133.322 386.35 131.551C386.35 129.728 386.796 128.312 387.688 127.303C388.586 126.294 389.768 125.789 391.232 125.789C392.704 125.789 393.882 126.294 394.768 127.303C395.653 128.305 396.096 129.721 396.096 131.551ZM394.201 131.551C394.201 130.138 393.944 129.09 393.43 128.406C392.915 127.716 392.183 127.371 391.232 127.371C390.275 127.371 389.536 127.716 389.016 128.406C388.501 129.09 388.244 130.138 388.244 131.551C388.244 132.918 388.501 133.956 389.016 134.666C389.536 135.369 390.275 135.721 391.232 135.721C392.176 135.721 392.906 135.376 393.42 134.686C393.941 133.989 394.201 132.944 394.201 131.551ZM402.316 137.244C401.568 137.244 400.881 137.13 400.256 136.902C399.631 136.668 399.094 136.316 398.645 135.848C398.195 135.379 397.847 134.79 397.6 134.08C397.352 133.364 397.229 132.524 397.229 131.561C397.229 130.604 397.355 129.777 397.609 129.08C397.87 128.383 398.215 127.798 398.645 127.322C399.074 126.847 399.608 126.482 400.246 126.229C400.891 125.968 401.581 125.838 402.316 125.838C402.915 125.838 403.492 125.923 404.045 126.092C404.605 126.261 405.103 126.456 405.539 126.678V128.738H405.432C405.301 128.628 405.132 128.501 404.924 128.357C404.722 128.214 404.475 128.068 404.182 127.918C403.928 127.788 403.628 127.674 403.283 127.576C402.938 127.479 402.606 127.43 402.287 127.43C401.337 127.43 400.572 127.791 399.992 128.514C399.419 129.23 399.133 130.245 399.133 131.561C399.133 132.85 399.41 133.855 399.963 134.578C400.523 135.294 401.298 135.652 402.287 135.652C402.886 135.652 403.456 135.529 403.996 135.281C404.536 135.034 405.015 134.715 405.432 134.324H405.539V136.385C405.357 136.469 405.129 136.574 404.855 136.697C404.582 136.814 404.335 136.902 404.113 136.961C403.801 137.052 403.521 137.12 403.273 137.166C403.026 137.218 402.707 137.244 402.316 137.244ZM417.336 137H415.52V128.426L412.902 133.992H411.535L408.938 128.426V137H407.219V126.092H409.436L412.307 132.146L415.08 126.092H417.336V137ZM428.967 131.551C428.967 133.387 428.524 134.806 427.639 135.809C426.753 136.805 425.575 137.303 424.104 137.303C422.587 137.303 421.392 136.788 420.52 135.76C419.654 134.725 419.221 133.322 419.221 131.551C419.221 129.728 419.667 128.312 420.559 127.303C421.457 126.294 422.639 125.789 424.104 125.789C425.575 125.789 426.753 126.294 427.639 127.303C428.524 128.305 428.967 129.721 428.967 131.551ZM427.072 131.551C427.072 130.138 426.815 129.09 426.301 128.406C425.786 127.716 425.054 127.371 424.104 127.371C423.146 127.371 422.408 127.716 421.887 128.406C421.372 129.09 421.115 130.138 421.115 131.551C421.115 132.918 421.372 133.956 421.887 134.666C422.408 135.369 423.146 135.721 424.104 135.721C425.048 135.721 425.777 135.376 426.291 134.686C426.812 133.989 427.072 132.944 427.072 131.551ZM440.002 131.258C440.002 133.074 439.566 134.523 438.693 135.604C437.827 136.678 436.73 137.215 435.402 137.215C434.862 137.215 434.383 137.153 433.967 137.029C433.55 136.906 433.124 136.714 432.688 136.453V141.023H430.852V126.092H432.688V127.234C433.143 126.824 433.648 126.482 434.201 126.209C434.761 125.929 435.37 125.789 436.027 125.789C437.277 125.789 438.251 126.284 438.947 127.273C439.65 128.263 440.002 129.591 440.002 131.258ZM438.107 131.463C438.107 130.219 437.909 129.256 437.512 128.572C437.115 127.882 436.47 127.537 435.578 127.537C435.057 127.537 434.553 127.654 434.064 127.889C433.583 128.117 433.124 128.413 432.688 128.777V134.959C433.169 135.193 433.579 135.353 433.918 135.438C434.263 135.522 434.657 135.564 435.1 135.564C436.05 135.564 436.789 135.216 437.316 134.52C437.844 133.823 438.107 132.804 438.107 131.463ZM446.643 137.254C444.904 137.254 443.553 136.766 442.59 135.789C441.633 134.806 441.154 133.413 441.154 131.609C441.154 129.832 441.62 128.419 442.551 127.371C443.482 126.316 444.699 125.789 446.203 125.789C446.88 125.789 447.479 125.887 448 126.082C448.521 126.277 448.977 126.583 449.367 127C449.758 127.417 450.057 127.928 450.266 128.533C450.474 129.132 450.578 129.868 450.578 130.74V131.736H443.02C443.02 133.006 443.339 133.976 443.977 134.646C444.615 135.317 445.497 135.652 446.623 135.652C447.027 135.652 447.421 135.607 447.805 135.516C448.195 135.424 448.547 135.307 448.859 135.164C449.191 135.014 449.471 134.871 449.699 134.734C449.927 134.591 450.116 134.458 450.266 134.334H450.373V136.336C450.158 136.421 449.891 136.528 449.572 136.658C449.253 136.782 448.967 136.88 448.713 136.951C448.355 137.049 448.029 137.124 447.736 137.176C447.45 137.228 447.085 137.254 446.643 137.254ZM448.791 130.33C448.778 129.835 448.719 129.409 448.615 129.051C448.511 128.693 448.361 128.39 448.166 128.143C447.951 127.869 447.674 127.661 447.336 127.518C447.004 127.374 446.59 127.303 446.096 127.303C445.607 127.303 445.191 127.378 444.846 127.527C444.507 127.671 444.198 127.882 443.918 128.162C443.645 128.449 443.436 128.768 443.293 129.119C443.15 129.464 443.059 129.868 443.02 130.33H448.791ZM460.402 127.703H456.691V137H454.855V127.703H451.145V126.092H460.402V127.703ZM470.031 133.621C470.031 134.148 469.924 134.627 469.709 135.057C469.501 135.486 469.214 135.835 468.85 136.102C468.42 136.427 467.961 136.658 467.473 136.795C466.984 136.932 466.356 137 465.588 137H461.77V126.092H463.605V130.34H465.637C466.457 130.34 467.092 130.382 467.541 130.467C467.997 130.551 468.449 130.76 468.898 131.092C469.276 131.372 469.559 131.73 469.748 132.166C469.937 132.602 470.031 133.087 470.031 133.621ZM468.137 133.65C468.137 133.318 468.078 133.029 467.961 132.781C467.85 132.527 467.665 132.322 467.404 132.166C467.131 132.003 466.818 131.906 466.467 131.873C466.122 131.84 465.624 131.824 464.973 131.824H463.605V135.535H464.934C465.585 135.535 466.089 135.509 466.447 135.457C466.805 135.398 467.115 135.291 467.375 135.135C467.642 134.965 467.834 134.767 467.951 134.539C468.075 134.305 468.137 134.008 468.137 133.65ZM223.664 161.244C222.915 161.244 222.229 161.13 221.604 160.902C220.979 160.668 220.441 160.316 219.992 159.848C219.543 159.379 219.195 158.79 218.947 158.08C218.7 157.364 218.576 156.524 218.576 155.561C218.576 154.604 218.703 153.777 218.957 153.08C219.217 152.383 219.562 151.798 219.992 151.322C220.422 150.847 220.956 150.482 221.594 150.229C222.238 149.968 222.928 149.838 223.664 149.838C224.263 149.838 224.839 149.923 225.393 150.092C225.952 150.261 226.451 150.456 226.887 150.678V152.738H226.779C226.649 152.628 226.48 152.501 226.271 152.357C226.07 152.214 225.822 152.068 225.529 151.918C225.275 151.788 224.976 151.674 224.631 151.576C224.286 151.479 223.954 151.43 223.635 151.43C222.684 151.43 221.919 151.791 221.34 152.514C220.767 153.23 220.48 154.245 220.48 155.561C220.48 156.85 220.757 157.855 221.311 158.578C221.87 159.294 222.645 159.652 223.635 159.652C224.234 159.652 224.803 159.529 225.344 159.281C225.884 159.034 226.363 158.715 226.779 158.324H226.887V160.385C226.704 160.469 226.477 160.574 226.203 160.697C225.93 160.814 225.682 160.902 225.461 160.961C225.148 161.052 224.868 161.12 224.621 161.166C224.374 161.218 224.055 161.244 223.664 161.244ZM237.121 157.699C237.121 158.227 237.02 158.695 236.818 159.105C236.617 159.509 236.34 159.848 235.988 160.121C235.546 160.466 235.08 160.701 234.592 160.824C234.11 160.941 233.531 161 232.854 161H228.566V150.092H232.57C233.371 150.092 233.957 150.118 234.328 150.17C234.699 150.215 235.067 150.339 235.432 150.541C235.816 150.749 236.099 151.026 236.281 151.371C236.464 151.716 236.555 152.126 236.555 152.602C236.555 153.122 236.411 153.591 236.125 154.008C235.839 154.418 235.458 154.737 234.982 154.965L235.031 155.033C235.624 155.183 236.118 155.486 236.516 155.941C236.919 156.397 237.121 156.983 237.121 157.699ZM234.67 152.885C234.67 152.637 234.628 152.423 234.543 152.24C234.465 152.058 234.325 151.915 234.123 151.811C233.889 151.687 233.625 151.615 233.332 151.596C233.046 151.57 232.645 151.557 232.131 151.557H230.383V154.545H232.492C232.941 154.545 233.26 154.525 233.449 154.486C233.638 154.441 233.846 154.35 234.074 154.213C234.289 154.083 234.442 153.907 234.533 153.686C234.624 153.464 234.67 153.197 234.67 152.885ZM235.227 157.709C235.227 157.338 235.171 157.042 235.061 156.82C234.956 156.592 234.722 156.391 234.357 156.215C234.13 156.104 233.885 156.036 233.625 156.01C233.365 155.984 233.003 155.971 232.541 155.971H230.383V159.535H231.975C232.632 159.535 233.143 159.509 233.508 159.457C233.872 159.405 234.185 159.301 234.445 159.145C234.719 158.975 234.917 158.78 235.041 158.559C235.165 158.337 235.227 158.054 235.227 157.709ZM248.029 155.551C248.029 157.387 247.587 158.806 246.701 159.809C245.816 160.805 244.637 161.303 243.166 161.303C241.649 161.303 240.454 160.788 239.582 159.76C238.716 158.725 238.283 157.322 238.283 155.551C238.283 153.728 238.729 152.312 239.621 151.303C240.52 150.294 241.701 149.789 243.166 149.789C244.637 149.789 245.816 150.294 246.701 151.303C247.587 152.305 248.029 153.721 248.029 155.551ZM246.135 155.551C246.135 154.138 245.878 153.09 245.363 152.406C244.849 151.716 244.117 151.371 243.166 151.371C242.209 151.371 241.47 151.716 240.949 152.406C240.435 153.09 240.178 154.138 240.178 155.551C240.178 156.918 240.435 157.956 240.949 158.666C241.47 159.369 242.209 159.721 243.166 159.721C244.11 159.721 244.839 159.376 245.354 158.686C245.874 157.989 246.135 156.944 246.135 155.551ZM258.527 161H256.711V152.865L251.574 161H249.914V150.092H251.73V158.1L256.809 150.092H258.527V161ZM274.66 157.982C274.66 158.594 274.527 159.112 274.26 159.535C273.993 159.958 273.651 160.294 273.234 160.541C272.837 160.782 272.385 160.961 271.877 161.078C271.369 161.195 270.861 161.254 270.354 161.254C269.637 161.254 268.96 161.182 268.322 161.039C267.684 160.902 267.049 160.681 266.418 160.375V158.344H266.535C266.978 158.754 267.531 159.079 268.195 159.32C268.866 159.555 269.533 159.672 270.197 159.672C270.484 159.672 270.79 159.643 271.115 159.584C271.447 159.519 271.727 159.421 271.955 159.291C272.255 159.109 272.466 158.913 272.59 158.705C272.72 158.497 272.785 158.21 272.785 157.846C272.785 157.455 272.71 157.143 272.561 156.908C272.417 156.667 272.219 156.488 271.965 156.371C271.711 156.254 271.424 156.182 271.105 156.156C270.793 156.124 270.461 156.107 270.109 156.107H268.82V154.525H269.807C270.054 154.525 270.363 154.519 270.734 154.506C271.105 154.486 271.402 154.434 271.623 154.35C271.903 154.245 272.128 154.099 272.297 153.91C272.466 153.715 272.551 153.389 272.551 152.934C272.551 152.615 272.479 152.357 272.336 152.162C272.193 151.967 272.014 151.814 271.799 151.703C271.577 151.586 271.337 151.508 271.076 151.469C270.816 151.423 270.565 151.4 270.324 151.4C269.706 151.4 269.11 151.488 268.537 151.664C267.971 151.833 267.482 152.087 267.072 152.426H266.955V150.443C267.424 150.281 267.941 150.137 268.508 150.014C269.081 149.89 269.654 149.828 270.227 149.828C270.689 149.828 271.158 149.877 271.633 149.975C272.115 150.066 272.57 150.225 273 150.453C273.404 150.674 273.742 150.98 274.016 151.371C274.289 151.755 274.426 152.227 274.426 152.787C274.426 153.38 274.257 153.9 273.918 154.35C273.586 154.792 273.143 155.085 272.59 155.229V155.297C273.195 155.505 273.69 155.824 274.074 156.254C274.465 156.684 274.66 157.26 274.66 157.982ZM282.688 158.314V155.287C282.251 155.326 281.698 155.382 281.027 155.453C280.363 155.518 279.826 155.613 279.416 155.736C278.928 155.886 278.524 156.117 278.205 156.43C277.886 156.736 277.727 157.165 277.727 157.719C277.727 158.344 277.902 158.816 278.254 159.135C278.605 159.454 279.12 159.613 279.797 159.613C280.376 159.613 280.9 159.49 281.369 159.242C281.838 158.988 282.277 158.679 282.688 158.314ZM282.688 159.838C282.538 159.949 282.336 160.105 282.082 160.307C281.835 160.502 281.594 160.658 281.359 160.775C281.034 160.945 280.718 161.075 280.412 161.166C280.113 161.257 279.689 161.303 279.143 161.303C278.693 161.303 278.267 161.218 277.863 161.049C277.46 160.88 277.105 160.642 276.799 160.336C276.506 160.036 276.271 159.669 276.096 159.232C275.92 158.79 275.832 158.324 275.832 157.836C275.832 157.081 275.992 156.439 276.311 155.912C276.63 155.378 277.134 154.955 277.824 154.643C278.436 154.363 279.159 154.171 279.992 154.066C280.826 153.956 281.724 153.874 282.688 153.822V153.471C282.688 153.041 282.622 152.696 282.492 152.436C282.362 152.169 282.18 151.964 281.945 151.82C281.711 151.671 281.424 151.573 281.086 151.527C280.747 151.475 280.399 151.449 280.041 151.449C279.618 151.449 279.12 151.514 278.547 151.645C277.974 151.768 277.401 151.951 276.828 152.191H276.721V150.326C277.059 150.229 277.544 150.121 278.176 150.004C278.807 149.887 279.432 149.828 280.051 149.828C280.799 149.828 281.431 149.887 281.945 150.004C282.46 150.121 282.922 150.333 283.332 150.639C283.729 150.938 284.025 151.326 284.221 151.801C284.416 152.276 284.514 152.855 284.514 153.539V161H282.688V159.838ZM296.457 163.617H294.748V160.971H287.561V163.617H285.852V159.438H286.574C287.193 158.422 287.697 157.097 288.088 155.463C288.485 153.822 288.684 152.032 288.684 150.092H295.373V159.438H296.457V163.617ZM293.537 159.438V151.635H290.412C290.327 153.262 290.103 154.75 289.738 156.098C289.38 157.439 288.928 158.552 288.381 159.438H293.537ZM304.367 158.314V155.287C303.931 155.326 303.378 155.382 302.707 155.453C302.043 155.518 301.506 155.613 301.096 155.736C300.607 155.886 300.204 156.117 299.885 156.43C299.566 156.736 299.406 157.165 299.406 157.719C299.406 158.344 299.582 158.816 299.934 159.135C300.285 159.454 300.799 159.613 301.477 159.613C302.056 159.613 302.58 159.49 303.049 159.242C303.518 158.988 303.957 158.679 304.367 158.314ZM304.367 159.838C304.217 159.949 304.016 160.105 303.762 160.307C303.514 160.502 303.273 160.658 303.039 160.775C302.714 160.945 302.398 161.075 302.092 161.166C301.792 161.257 301.369 161.303 300.822 161.303C300.373 161.303 299.947 161.218 299.543 161.049C299.139 160.88 298.785 160.642 298.479 160.336C298.186 160.036 297.951 159.669 297.775 159.232C297.6 158.79 297.512 158.324 297.512 157.836C297.512 157.081 297.671 156.439 297.99 155.912C298.309 155.378 298.814 154.955 299.504 154.643C300.116 154.363 300.839 154.171 301.672 154.066C302.505 153.956 303.404 153.874 304.367 153.822V153.471C304.367 153.041 304.302 152.696 304.172 152.436C304.042 152.169 303.859 151.964 303.625 151.82C303.391 151.671 303.104 151.573 302.766 151.527C302.427 151.475 302.079 151.449 301.721 151.449C301.298 151.449 300.799 151.514 300.227 151.645C299.654 151.768 299.081 151.951 298.508 152.191H298.4V150.326C298.739 150.229 299.224 150.121 299.855 150.004C300.487 149.887 301.112 149.828 301.73 149.828C302.479 149.828 303.111 149.887 303.625 150.004C304.139 150.121 304.602 150.333 305.012 150.639C305.409 150.938 305.705 151.326 305.9 151.801C306.096 152.276 306.193 152.855 306.193 153.539V161H304.367V159.838ZM317.395 161H315.559V156.088H310.617V161H308.781V150.092H310.617V154.506H315.559V150.092H317.395V161ZM328.664 161H326.848V152.865L321.711 161H320.051V150.092H321.867V158.1L326.945 150.092H328.664V161ZM339.221 161H337.385V156.674H335.568L332.336 161H330.197L333.703 156.508C332.798 156.241 332.134 155.844 331.711 155.316C331.294 154.789 331.086 154.083 331.086 153.197C331.086 152.657 331.203 152.185 331.438 151.781C331.678 151.371 332.001 151.026 332.404 150.746C332.73 150.525 333.14 150.362 333.635 150.258C334.13 150.147 334.683 150.092 335.295 150.092H339.221V161ZM337.385 155.229V151.557H335.393C334.969 151.557 334.634 151.579 334.387 151.625C334.146 151.671 333.911 151.758 333.684 151.889C333.449 152.032 333.27 152.227 333.146 152.475C333.029 152.715 332.971 152.976 332.971 153.256C332.971 153.614 333.01 153.907 333.088 154.135C333.173 154.356 333.322 154.561 333.537 154.75C333.765 154.945 334.042 155.076 334.367 155.141C334.699 155.199 335.061 155.229 335.451 155.229H337.385ZM356.75 161H354.934V152.865L349.797 161H348.137V150.092H349.953V158.1L355.031 150.092H356.75V161ZM374.807 155.258C374.807 157.074 374.37 158.523 373.498 159.604C372.632 160.678 371.535 161.215 370.207 161.215C369.667 161.215 369.188 161.153 368.771 161.029C368.355 160.906 367.928 160.714 367.492 160.453V165.023H365.656V150.092H367.492V151.234C367.948 150.824 368.452 150.482 369.006 150.209C369.566 149.929 370.174 149.789 370.832 149.789C372.082 149.789 373.055 150.284 373.752 151.273C374.455 152.263 374.807 153.591 374.807 155.258ZM372.912 155.463C372.912 154.219 372.714 153.256 372.316 152.572C371.919 151.882 371.275 151.537 370.383 151.537C369.862 151.537 369.357 151.654 368.869 151.889C368.387 152.117 367.928 152.413 367.492 152.777V158.959C367.974 159.193 368.384 159.353 368.723 159.438C369.068 159.522 369.462 159.564 369.904 159.564C370.855 159.564 371.594 159.216 372.121 158.52C372.648 157.823 372.912 156.804 372.912 155.463ZM381.447 161.254C379.709 161.254 378.358 160.766 377.395 159.789C376.438 158.806 375.959 157.413 375.959 155.609C375.959 153.832 376.424 152.419 377.355 151.371C378.286 150.316 379.504 149.789 381.008 149.789C381.685 149.789 382.284 149.887 382.805 150.082C383.326 150.277 383.781 150.583 384.172 151C384.562 151.417 384.862 151.928 385.07 152.533C385.279 153.132 385.383 153.868 385.383 154.74V155.736H377.824C377.824 157.006 378.143 157.976 378.781 158.646C379.419 159.317 380.301 159.652 381.428 159.652C381.831 159.652 382.225 159.607 382.609 159.516C383 159.424 383.352 159.307 383.664 159.164C383.996 159.014 384.276 158.871 384.504 158.734C384.732 158.591 384.921 158.458 385.07 158.334H385.178V160.336C384.963 160.421 384.696 160.528 384.377 160.658C384.058 160.782 383.771 160.88 383.518 160.951C383.16 161.049 382.834 161.124 382.541 161.176C382.255 161.228 381.89 161.254 381.447 161.254ZM383.596 154.33C383.583 153.835 383.524 153.409 383.42 153.051C383.316 152.693 383.166 152.39 382.971 152.143C382.756 151.869 382.479 151.661 382.141 151.518C381.809 151.374 381.395 151.303 380.9 151.303C380.412 151.303 379.995 151.378 379.65 151.527C379.312 151.671 379.003 151.882 378.723 152.162C378.449 152.449 378.241 152.768 378.098 153.119C377.954 153.464 377.863 153.868 377.824 154.33H383.596ZM395.852 161H394.035V152.865L388.898 161H387.238V150.092H389.055V158.1L394.133 150.092H395.852V161ZM395.031 145.023C395.031 145.583 394.963 146.094 394.826 146.557C394.689 147.012 394.494 147.396 394.24 147.709C393.947 148.054 393.615 148.314 393.244 148.49C392.873 148.66 392.398 148.744 391.818 148.744C391.285 148.744 390.816 148.656 390.412 148.48C390.015 148.298 389.68 148.041 389.406 147.709C389.139 147.383 388.938 146.993 388.801 146.537C388.664 146.081 388.596 145.577 388.596 145.023H390.178C390.178 145.902 390.314 146.537 390.588 146.928C390.861 147.312 391.271 147.504 391.818 147.504C392.333 147.504 392.733 147.315 393.02 146.938C393.306 146.553 393.449 145.915 393.449 145.023H395.031ZM406.477 151.703H402.766V161H400.93V151.703H397.219V150.092H406.477V151.703ZM416.457 161H414.641V152.865L409.504 161H407.844V150.092H409.66V158.1L414.738 150.092H416.457V161ZM427.727 161H425.891V156.088H420.949V161H419.113V150.092H420.949V154.506H425.891V150.092H427.727V161ZM437.316 151.703H432.219V161H430.383V150.092H437.316V151.703Z" fill="black"/>
<path d="M189 182H299C307.284 182 314 188.716 314 197V223C314 231.284 307.284 238 299 238H204C195.716 238 189 231.284 189 223V182Z" fill="#D2EAFF"/>
<path d="M232.631 201.459L227.357 213.705C227.136 214.219 226.885 214.633 226.605 214.945C226.332 215.258 226.046 215.492 225.746 215.648C225.447 215.811 225.15 215.919 224.857 215.971C224.571 216.023 224.281 216.049 223.988 216.049C223.728 216.049 223.422 216.042 223.07 216.029C222.719 216.016 222.494 216.007 222.396 216V214.193H222.533C222.631 214.206 222.777 214.223 222.973 214.242C223.174 214.255 223.428 214.262 223.734 214.262C223.878 214.262 224.047 214.255 224.242 214.242C224.438 214.223 224.617 214.174 224.779 214.096C224.968 214.005 225.144 213.884 225.307 213.734C225.476 213.578 225.629 213.334 225.766 213.002L226.098 212.23L220.99 201.459H223.129L227.074 210.014L230.639 201.459H232.631ZM243.188 218.617H241.479V215.971H234.291V218.617H232.582V214.438H233.305C233.923 213.422 234.428 212.097 234.818 210.463C235.215 208.822 235.414 207.032 235.414 205.092H242.104V214.438H243.188V218.617ZM240.268 214.438V206.635H237.143C237.058 208.262 236.833 209.75 236.469 211.098C236.111 212.439 235.658 213.552 235.111 214.438H240.268ZM251.098 213.314V210.287C250.661 210.326 250.108 210.382 249.438 210.453C248.773 210.518 248.236 210.613 247.826 210.736C247.338 210.886 246.934 211.117 246.615 211.43C246.296 211.736 246.137 212.165 246.137 212.719C246.137 213.344 246.312 213.816 246.664 214.135C247.016 214.454 247.53 214.613 248.207 214.613C248.786 214.613 249.311 214.49 249.779 214.242C250.248 213.988 250.688 213.679 251.098 213.314ZM251.098 214.838C250.948 214.949 250.746 215.105 250.492 215.307C250.245 215.502 250.004 215.658 249.77 215.775C249.444 215.945 249.128 216.075 248.822 216.166C248.523 216.257 248.1 216.303 247.553 216.303C247.104 216.303 246.677 216.218 246.273 216.049C245.87 215.88 245.515 215.642 245.209 215.336C244.916 215.036 244.682 214.669 244.506 214.232C244.33 213.79 244.242 213.324 244.242 212.836C244.242 212.081 244.402 211.439 244.721 210.912C245.04 210.378 245.544 209.955 246.234 209.643C246.846 209.363 247.569 209.171 248.402 209.066C249.236 208.956 250.134 208.874 251.098 208.822V208.471C251.098 208.041 251.033 207.696 250.902 207.436C250.772 207.169 250.59 206.964 250.355 206.82C250.121 206.671 249.835 206.573 249.496 206.527C249.158 206.475 248.809 206.449 248.451 206.449C248.028 206.449 247.53 206.514 246.957 206.645C246.384 206.768 245.811 206.951 245.238 207.191H245.131V205.326C245.469 205.229 245.954 205.121 246.586 205.004C247.217 204.887 247.842 204.828 248.461 204.828C249.21 204.828 249.841 204.887 250.355 205.004C250.87 205.121 251.332 205.333 251.742 205.639C252.139 205.938 252.436 206.326 252.631 206.801C252.826 207.276 252.924 207.855 252.924 208.539V216H251.098V214.838ZM263.715 216H261.879V211.742C261.306 211.931 260.749 212.077 260.209 212.182C259.669 212.286 259.135 212.338 258.607 212.338C258.145 212.338 257.693 212.279 257.25 212.162C256.814 212.038 256.436 211.84 256.117 211.566C255.798 211.293 255.551 210.945 255.375 210.521C255.206 210.092 255.121 209.587 255.121 209.008V205.092H256.957V208.051C256.957 208.533 256.977 208.917 257.016 209.203C257.055 209.483 257.162 209.757 257.338 210.023C257.488 210.251 257.712 210.427 258.012 210.551C258.318 210.674 258.718 210.736 259.213 210.736C259.643 210.736 260.102 210.694 260.59 210.609C261.085 210.525 261.514 210.424 261.879 210.307V205.092H263.715V216ZM274.984 216H273.168V207.865L268.031 216H266.371V205.092H268.188V213.1L273.266 205.092H274.984V216ZM280.727 201.459L280.453 211.996H278.832L278.539 201.459H280.727ZM280.629 216H278.637V213.939H280.629V216Z" fill="black"/>
<ellipse cx="90.5" cy="394.634" rx="75.5" ry="13.3663" fill="#C4C4C4"/>
<path d="M169.219 278.653C169.281 278.653 169.344 278.653 169.406 278.637C169.5 278.622 171.844 278.359 175.828 277.647C180.172 276.858 183.031 276.533 183.063 276.533C184 276.425 184.688 275.59 184.578 274.646C184.469 273.718 183.609 273.037 182.672 273.145C182.547 273.161 179.672 273.486 175.203 274.29C171.344 274.986 169.031 275.249 169.016 275.249C168.078 275.358 167.391 276.193 167.5 277.137C167.609 278.003 168.359 278.653 169.219 278.653Z" fill="#888071"/>
<path d="M183.156 285.475C184.016 285.475 184.766 284.841 184.859 283.975C184.885 283.752 184.867 283.527 184.805 283.311C184.743 283.096 184.638 282.895 184.497 282.719C184.357 282.544 184.182 282.398 183.984 282.289C183.786 282.181 183.569 282.112 183.344 282.087C183.297 282.087 178.953 281.577 176.75 281.221C174.469 280.865 169.344 280.061 169.344 280.061L168.813 283.418L176.203 284.578C178.484 284.949 182.766 285.444 182.953 285.46C183.031 285.46 183.094 285.475 183.156 285.475Z" fill="#888071"/>
<path d="M180.453 292.592C181.203 292.592 181.891 292.112 182.109 291.354C182.375 290.457 181.844 289.513 180.922 289.25L168.609 285.769C168.174 285.659 167.713 285.722 167.324 285.944C166.935 286.165 166.649 286.529 166.526 286.957C166.404 287.384 166.455 287.843 166.669 288.233C166.883 288.624 167.243 288.917 167.672 289.049L179.984 292.53C180.125 292.561 180.297 292.592 180.453 292.592Z" fill="#888071"/>
<path d="M116.734 338.585L133.672 351.441C133.672 351.441 133.016 378.235 133.453 379.318C133.891 380.401 139.828 387.162 139.172 391.075C138.656 394.123 136.312 395.206 129.937 395.438C123.562 395.67 110.578 392.824 110.578 392.824L116.734 338.585Z" fill="#B85C3E"/>
<path d="M67.0156 348.811L79.5469 355.772C79.5469 355.772 77.7813 361.001 77.7813 368.412C77.7813 375.822 78.4375 380.463 78.875 381.994C79.3125 383.526 82.9844 386.419 82.6094 390.627C82.4375 392.576 79.9688 394.108 75.5781 393.891C71.1875 393.675 64.7969 393.241 64.7969 393.241L58.4219 352.075L67.0156 348.811Z" fill="#B85C3E"/>
<path d="M148.031 251.023C148.031 251.023 150.078 243.907 148.328 232.582C146.563 221.258 143.641 215.302 140.844 215.008C138.063 214.714 132.781 219.943 128.672 226.193C124.563 232.443 121.188 243.473 121.188 243.473L148.031 251.023Z" fill="#FB8B02"/>
<path d="M100.234 358.464C100.234 358.464 100.094 371.537 99.7969 377.338C99.5 383.139 99.7813 396.026 100.969 397.449C102.797 399.631 104.641 399.692 108.594 399.847C110.953 399.94 107.859 385.475 107.859 384.887C107.859 384.299 107.719 349.6 107.719 349.6L100.234 358.464Z" fill="#FB8B02"/>
<path d="M139.391 313.322C139.391 313.322 142.906 324.352 142.031 332.629C141.156 340.905 136.312 351.363 131.469 355.571C126.625 359.779 122.234 361.96 121.797 362.981C121.359 364.002 119.594 378.374 120.187 381.422C120.781 384.47 125.031 392.313 124.297 395.361C123.562 398.408 120.656 400.327 113.156 400.157C103.406 399.94 103.922 398.486 103.188 392.468C102.688 388.415 103.328 360.382 103.328 360.382C103.328 360.382 97.3125 360.97 88.8125 360.382C80.3125 359.795 69.75 356.02 69.75 356.02C69.75 356.02 63.7344 374.6 65.7969 380.262C67.8438 385.924 71.2187 389.126 70.6406 393.04C70.0469 396.954 64.9219 398.702 58.6094 398.114C52.2969 397.527 47.4688 393.473 47.1719 388.09C46.875 382.722 47.0312 352.957 46.1406 350.636C45.2656 348.316 42.0312 340.333 42.3281 332.335C42.625 324.337 43.2031 321.15 43.2031 321.15C43.2031 321.15 35.625 318.288 28.6094 313.028C23.2656 309.021 19.25 303.746 17.1094 295.887C13.5937 282.969 18.4219 270.191 28.1094 265.828C37.4219 261.636 46.5937 263.213 46.875 269.897C47.1562 276.58 41.1562 275.126 36.6094 276.858C32.0625 278.606 26.9375 286.589 32.3594 294.433C37.7812 302.276 47.3125 304.736 50.25 305.03C53.1875 305.324 58.6094 300.822 69.9062 300.528C81.2031 300.234 97.4687 308.371 97.9219 307.35C98.3594 306.329 81.7969 295.732 80.625 281.948C79.5312 269.17 82.2344 263.213 82.2344 263.213C82.2344 263.213 84.2812 241.586 87.2187 231.422C90.1562 221.258 94.2187 213.709 96.8594 213.863C99.5 214.002 108 223.161 111.078 227.663C114.156 232.165 117.531 239.42 117.531 239.42C117.531 239.42 130.656 238.941 136.453 241.014C141.734 242.901 147.75 246.088 151.562 252.044C155.375 258 156.547 261.481 158.312 262.347C160.078 263.213 168.437 264.962 169.172 265.983C169.906 267.004 171.812 280.509 171.375 282.536C170.937 284.563 170.594 289.296 168.156 291.973C165.375 295.02 157.672 300.172 151.578 304.024C145.687 307.737 139.969 310.707 139.391 313.322Z" fill="#FFB800"/>
<path d="M85.3437 327.539C79.9219 327.462 80.0625 321.011 79.9844 313.012C79.9219 306.02 80.2031 301.905 80.2031 301.905C80.2031 301.905 83.3125 302.322 86.0625 303.359C88.7812 304.38 91.125 305.324 91.125 305.324V316.571C91.1406 320.423 90.7031 327.616 85.3437 327.539Z" fill="#FF9B31"/>
<path d="M75.8125 300.899C75.8125 300.899 75.8125 307.644 75.7344 313.384C75.6563 319.556 76.25 326.239 70.0156 326.162C64.6562 326.1 64.6562 319.34 64.5937 311.713C64.5625 307.722 64.4531 300.899 64.4531 300.899C64.4531 300.899 67.0937 300.389 70.25 300.466C72.7344 300.528 75.8125 300.899 75.8125 300.899Z" fill="#FF9B31"/>
<path d="M129.984 271.459C131.125 274.197 133.578 278.111 137.625 277.09C140.219 276.441 140.406 270.918 138.891 267.638C137.094 263.77 134.703 262.022 131.906 262.347C128.828 262.718 128.531 267.947 129.984 271.459Z" fill="#2C312C"/>
<path d="M156.766 270.624C156.844 268.876 161.391 267.653 164.906 266.338C167.891 265.24 169.531 265.178 170.328 265.905C171.125 266.632 172.094 268.52 172.531 271.428C172.969 274.337 172.813 279.256 172.094 282.319C171.359 285.444 170.188 289.358 164.984 291.4C160.516 293.149 157.875 290.751 155.969 289.436C153.547 287.78 154.594 283.851 158.016 285.877C160.578 287.409 162.344 287.842 164.328 286.388C167.047 284.392 167.703 278.483 167.484 277.972C166.531 275.76 162.719 275.218 161.172 274.631C159.625 274.043 156.688 272.155 156.766 270.624Z" fill="#2C312C"/>
<path d="M126.031 286.048H126.156C126.203 286.048 131.141 285.692 134.219 285.614L143.016 285.398C143.016 285.398 144.859 285.553 144.859 283.758C144.859 281.855 142.938 282.149 142.938 282.149L134.141 282.366C130.984 282.443 126.125 282.783 125.922 282.799C125.016 282.861 124.344 283.65 124.406 284.532C124.469 285.398 125.188 286.048 126.031 286.048Z" fill="#888071"/>
<path d="M128.828 296.645C129.062 296.645 129.312 296.598 129.531 296.49C129.562 296.475 133.453 294.634 136.969 293.442C140.625 292.22 144.719 290.905 144.719 290.905C145.578 290.627 146.062 289.714 145.781 288.863C145.5 288.012 144.578 287.533 143.719 287.811C143.719 287.811 139.594 289.126 135.922 290.364C132.203 291.617 128.281 293.473 128.109 293.566C127.297 293.953 126.953 294.928 127.344 295.732C127.625 296.304 128.219 296.645 128.828 296.645Z" fill="#888071"/>
<path d="M136.812 302.678C137.125 302.678 137.453 302.585 137.734 302.4C137.766 302.384 140.516 300.528 142.359 299.399C144.281 298.238 147.734 296.041 147.734 296.041C147.734 296.041 149.281 295.144 148.281 293.721C147.281 292.298 145.969 293.288 145.969 293.288C145.969 293.288 142.531 295.454 140.641 296.614C138.719 297.774 136 299.631 135.875 299.708C135.125 300.218 134.937 301.224 135.453 301.967C135.781 302.431 136.297 302.678 136.812 302.678Z" fill="#888071"/>
<path d="M99.4531 227.075C100.203 226.812 105.062 232.412 107.484 237.966C109.906 243.52 110.781 246.567 110.562 247.542C110.469 247.975 107.672 250.373 103.531 253.637C99.2344 257.01 96.5 259.083 95.2812 258.975C94.0781 258.866 93.7344 249.615 94.7344 241.23C95.7344 232.845 98.25 227.508 99.4531 227.075Z" fill="#FED0AB"/>
</svg>
