<svg width="14" height="24" viewBox="0 0 14 24" fill="none" xmlns="http://www.w3.org/2000/svg">
<path d="M4.32601 1.03198C5.16201 1.84798 13.33 10.422 13.33 10.422C13.5417 10.6263 13.7101 10.8711 13.8251 11.1419C13.9401 11.4126 13.9994 11.7038 13.9994 11.998C13.9994 12.2922 13.9401 12.5833 13.8251 12.8541C13.7101 13.1249 13.5417 13.3697 13.33 13.574C13.33 13.574 5.16201 22.152 4.32601 22.964C3.49001 23.78 1.98601 23.836 1.09601 22.964C0.20401 22.096 0.13401 20.882 1.09601 19.816L8.59001 12L1.09601 4.18398C0.13401 3.11798 0.20401 1.90198 1.09601 1.03198C1.98601 0.159983 3.49001 0.213983 4.32601 1.03198Z" fill="black"/>
</svg>
