<svg width="21" height="21" viewBox="0 0 21 21" fill="none" xmlns="http://www.w3.org/2000/svg">
<path d="M20.9326 6.88408C20.9214 6.04432 20.7639 5.21292 20.4672 4.42705C20.21 3.76417 19.817 3.16216 19.3135 2.65948C18.81 2.1568 18.207 1.7645 17.543 1.50765C16.7659 1.21644 15.945 1.05898 15.1152 1.04197C14.0468 0.994293 13.708 0.980988 10.9959 0.980988C8.28377 0.980988 7.93615 0.980988 6.87551 1.04197C6.04605 1.0591 5.22552 1.21657 4.44881 1.50765C3.78472 1.76432 3.18162 2.15656 2.67808 2.65926C2.17454 3.16196 1.78165 3.76407 1.52455 4.42705C1.23227 5.20222 1.07489 6.02158 1.0592 6.84971C1.01145 7.91746 0.997009 8.25563 0.997009 10.9632C0.997009 13.6709 0.997009 14.0168 1.0592 15.0768C1.07586 15.9061 1.23246 16.7244 1.52455 17.5017C1.78208 18.1644 2.17526 18.7663 2.67897 19.2688C3.18268 19.7713 3.78584 20.1634 4.44992 20.42C5.2245 20.7229 6.04518 20.8916 6.87662 20.9189C7.94614 20.9666 8.28488 20.981 10.997 20.981C13.7091 20.981 14.0568 20.981 15.1174 20.9189C15.9472 20.9026 16.7682 20.7455 17.5452 20.4543C18.209 20.1972 18.8119 19.8048 19.3154 19.3021C19.8188 18.7995 20.2119 18.1976 20.4695 17.5349C20.7616 16.7588 20.9182 15.9405 20.9348 15.11C20.9826 14.0434 20.997 13.7052 20.997 10.9965C20.9948 8.28889 20.9948 7.94518 20.9326 6.88408V6.88408ZM10.9892 16.0835C8.15272 16.0835 5.85485 13.7895 5.85485 10.9577C5.85485 8.1259 8.15272 5.83186 10.9892 5.83186C12.351 5.83186 13.6569 6.3719 14.6198 7.33318C15.5827 8.29447 16.1236 9.59825 16.1236 10.9577C16.1236 12.3172 15.5827 13.6209 14.6198 14.5822C13.6569 15.5435 12.351 16.0835 10.9892 16.0835V16.0835ZM16.328 6.83751C15.6649 6.83751 15.1307 6.30309 15.1307 5.64226C15.1307 5.48537 15.1617 5.33001 15.2218 5.18507C15.282 5.04012 15.3701 4.90842 15.4812 4.79748C15.5924 4.68654 15.7243 4.59854 15.8695 4.5385C16.0147 4.47846 16.1703 4.44756 16.3274 4.44756C16.4846 4.44756 16.6402 4.47846 16.7854 4.5385C16.9306 4.59854 17.0625 4.68654 17.1736 4.79748C17.2847 4.90842 17.3729 5.04012 17.433 5.18507C17.4932 5.33001 17.5241 5.48537 17.5241 5.64226C17.5241 6.30309 16.9888 6.83751 16.328 6.83751Z" fill="black"/>
<path d="M10.9893 14.2874C12.8313 14.2874 14.3245 12.7966 14.3245 10.9577C14.3245 9.11881 12.8313 7.62808 10.9893 7.62808C9.14733 7.62808 7.65411 9.11881 7.65411 10.9577C7.65411 12.7966 9.14733 14.2874 10.9893 14.2874Z" fill="black"/>
</svg>
